<?xml version="1.0" encoding="UTF-8"?> <svg xmlns="http://www.w3.org/2000/svg" viewBox="0 0 183.15 162.69"><defs><style>.cls-1{fill:#db2f36;}.cls-2{fill:#fff;}</style></defs><title>Fichier 1</title><g id="Calque_2" data-name="Calque 2"><g id="Calque_1-2" data-name="Calque 1"><polyline points="0 126.99 23.48 126.99 23.48 133.63 9.35 133.63 9.35 141.32 22.88 141.32 22.88 147.95 9.35 147.95 9.35 162.08 0 162.08 0 126.99"></polyline><path d="M44.89,162.08c0-1.41-.2-2.76-.2-4.12H44.6c-2.06,3.27-4.58,4.73-8.3,4.73-5.18,0-9.81-2.57-9.81-8.25,0-8,8.7-8.95,13.53-8.95a25.45,25.45,0,0,1,4.22.36c-.05-3.58-2.72-4.53-6-4.53a17.11,17.11,0,0,0-8.35,2l-.15-6.14a27.23,27.23,0,0,1,10.46-1.86c6.69,0,12.47,2.87,12.47,10.87v9.75a32.21,32.21,0,0,0,.5,6.18Zm-6.23-5.43c3.42,0,5.58-3.12,5.58-6.18-1.16-.05-2.46-.16-3.82-.16-3.07,0-5.48,1-5.48,3.47,0,1.82,1.61,2.87,3.72,2.87"></path><path d="M58.27,124.37h9.1v14.88h.1c2.31-2.91,5.38-4,9-4,7.24,0,11.21,6.89,11.21,13.23,0,7.74-4.17,14.17-12,14.17-4.17,0-7.84-2.36-9-5.27h-.1v4.67H58.27V124.37Zm14.58,17.85c-3.32,0-5.53,2.92-5.53,6.84s2.51,6.69,5.53,6.69c3.41,0,5.48-2.87,5.48-7,0-3.47-2-6.49-5.48-6.49"></path><path d="M99.94,151.62c.51,3.62,3.28,5,7.7,5a16.91,16.91,0,0,0,8-2V161a26.12,26.12,0,0,1-9.6,1.65c-8.65,0-15.24-5.07-15.24-13.72s5.88-13.68,14-13.68c9.7,0,13.22,6.89,13.22,14.68v1.66Zm10-5.13c0-3-1.41-5.48-5-5.48-3.27,0-4.82,2.47-5,5.48H109.9"></path><path d="M122.77,135.89H131v4.82h.1c1.81-3.77,5.44-5.43,9.55-5.43,3.72,0,6.79,1.61,8.2,5a10.37,10.37,0,0,1,9.3-5c7.54,0,9.25,4.27,9.25,11.36v15.44h-9V148c0-3-1.06-5.18-3.62-5.18-3.22,0-5.13,2.56-5.13,8.19v11.06h-9.05V148c0-3-1-5.18-3.62-5.18-3.21,0-5.13,2.57-5.13,8.2v11.06h-9v-26.2"></path><path d="M183.15,131.61h-9V125h9v6.63Zm-9,4.28h9v26.19h-9V135.89"></path><polyline class="cls-1" points="81.71 123.91 30.37 51.33 102.93 0 154.27 72.57 81.71 123.91"></polyline><path class="cls-2" d="M137.82,71.64A46.22,46.22,0,0,0,89.18,28,37.2,37.2,0,0,0,54.07,67,29.91,29.91,0,0,0,85.5,95.24a24,24,0,0,0,22.43-20.16,29.76,29.76,0,0,0,6.3-.6c1.67-.26,3.54-.55,5.44-.73,8.21-.81,17.35-1.31,17.44-1.32l.75,0,0-.75ZM89,77.7a12.79,12.79,0,0,0-2.84-5.28,4,4,0,0,0,1.46-1.23,19.34,19.34,0,0,1,5,3A8.87,8.87,0,0,1,89,77.7ZM74.81,61a15.1,15.1,0,0,0-1.22,3.29c-5.58-.46-12.46-1-17.23-4.58a34.59,34.59,0,0,1,3-9.36A56.17,56.17,0,0,0,74.81,61Zm28.76,2.64c-5.15.75-6.69,1.11-10,2.86a7.85,7.85,0,0,0-1-1.54c.62-.85,3.71-4.81,7.65-6a17.41,17.41,0,0,1,3.36,4.71Zm-15.2,5.29A4.06,4.06,0,0,0,88,67.26a9.88,9.88,0,0,1,4.55-1.2,6.75,6.75,0,0,1,1.13,3.13,11.73,11.73,0,0,0-5.3-.3Zm-3.92,3.26a3.24,3.24,0,0,1-3.24-3.23h0v-.1a2.7,2.7,0,0,1,.14-.77,3.23,3.23,0,1,1,3.1,4.11ZM73.92,68.33v0a13.56,13.56,0,0,1,.73-5.19,17.7,17.7,0,0,0,6.42,3.14,7.86,7.86,0,0,0-.47,1.63,6.48,6.48,0,0,0-.06.77,12.49,12.49,0,0,1-6.62-.33Zm8.86-3.55A5.26,5.26,0,0,1,86.45,63a7.06,7.06,0,0,1,2.61.36,8.82,8.82,0,0,0-2.3,2.4A3.88,3.88,0,0,0,84.45,65a3.83,3.83,0,0,0-2.41.84,6,6,0,0,1,.74-1Zm9.47.86a10.33,10.33,0,0,0-4.46,1.23A4.52,4.52,0,0,0,87,66a8.84,8.84,0,0,1,2.41-2.46,7.06,7.06,0,0,1,2.83,2.14ZM94.4,69.4A8,8,0,0,0,94,67.3c3.26-1.75,4.64-2.06,10-2.83a15.55,15.55,0,0,1,1.3,5.45v.18C99.74,69,98.52,69,94.4,69.4Zm-2.38-5a7.69,7.69,0,0,0-2-1.34c.36-1.2,1.88-5.63,5.1-7.68a17.27,17.27,0,0,1,4.33,2.85l.1.1c-3.85,1.37-6.78,5-7.58,6.07Zm.13-10.81c.79-7.19,4-14,9.7-20.89a42.18,42.18,0,0,1,14.05,6.67c-8.41,4.05-15.54,11.58-19.25,16a17.79,17.79,0,0,0-4.5-1.77Zm2.31,1.5c-3.13,2.24-4.59,6.41-5,7.72a7.55,7.55,0,0,0-2.61-.48,16.88,16.88,0,0,1,2.26-8.49,17,17,0,0,1,5.34,1.25Zm-8.23,7.27a5.54,5.54,0,0,0-1.62.37,14.44,14.44,0,0,1-1-8.31,14,14,0,0,1,3.32-.6c.48,0,1,0,1.43,0a17.39,17.39,0,0,0-2.16,8.55Zm-6.74-6.69c-5.66-5.41-8-11.64-9.73-17.69A34,34,0,0,1,82.86,32C81.65,38.86,81,45.75,84,53.55a14.23,14.23,0,0,0-4.46,2.08Zm3.47-1A15.14,15.14,0,0,0,84,62.94a5.91,5.91,0,0,0-1.32.92l-.29-.18c-1.22-.71-3.06-1.79-4.31-6a13.73,13.73,0,0,1,4.84-3ZM77.75,58c1.3,4.21,3.18,5.32,4.44,6.05l.18.12-.1.11a6,6,0,0,0-1,1.5,17.73,17.73,0,0,1-6.44-3.18A13.7,13.7,0,0,1,77.75,58Zm-4.41,7.6a14.32,14.32,0,0,0-.12,2.71c0,.34.06.67.11,1l-.85.17c-5.61,1.11-10.92,2.17-16.23.78a30.32,30.32,0,0,1-.34-3,35.83,35.83,0,0,1,.22-6.06c5,3.37,11.7,4,17.21,4.42Zm-.59,5.25.85-.17a12,12,0,0,0,1.19,2.83c-5.17,3.32-8.55,4.35-15.2,6a27,27,0,0,1-3.05-7.78C62,73,67.44,72,72.75,70.89Zm1.22-2a12.62,12.62,0,0,0,6.56.3A4,4,0,0,0,81.14,71a12.38,12.38,0,0,1-5,3.35A10.91,10.91,0,0,1,74,68.85Zm7.47,2.57a4,4,0,0,0,1.64,1.17,12.35,12.35,0,0,1-1.3,5.65,11.07,11.07,0,0,1-5.3-3.47,12.89,12.89,0,0,0,5-3.35Zm-.21,7.38a43.12,43.12,0,0,1-5,13.44,26.77,26.77,0,0,1-8.35-3.77l2.25-1.9c3.24-2.65,6.58-5.4,8.6-8.91a11.17,11.17,0,0,0,2.45,1.14Zm1-.42a12.71,12.71,0,0,0,1.32-5.64,3.57,3.57,0,0,0,2.14-.12,12.26,12.26,0,0,1,2.88,5.29,8.53,8.53,0,0,1-3.11.78,11.09,11.09,0,0,1-3.23-.31Zm6.71.14a37.73,37.73,0,0,1,4.8,12,21.63,21.63,0,0,1-6.49,2.24,36.45,36.45,0,0,0-.86-13.49A9.92,9.92,0,0,0,89,78.52Zm3.9-4.76a19.82,19.82,0,0,0-5-3,3.89,3.89,0,0,0,.46-1.47,11.44,11.44,0,0,1,5.38.3,8.79,8.79,0,0,1-.85,4.12Zm1.55-3.34c4.07-.49,5.25-.53,10.85.82a22.75,22.75,0,0,1-.53,4.89,38.73,38.73,0,0,0-10.79-3.21,9.38,9.38,0,0,0,.47-2.5ZM103,61.28c2.82-1.38,15.44-7.42,24.29-9.35a41.9,41.9,0,0,1,4.1,9.55c-9.73.56-23.55,4.71-26,5.46A17.78,17.78,0,0,0,103,61.28ZM126.14,50c-9.58,2.25-22.43,8.53-24.4,9.52A17.29,17.29,0,0,0,100,57.68a18.63,18.63,0,0,0-1.47-1.19c6.25-7.4,13.06-12.9,19.32-15.67.49.4,1,.81,1.43,1.23a42,42,0,0,1,6.89,8ZM99.53,32.11C94,39,90.87,45.9,90,53.19a18.91,18.91,0,0,0-3.11-.12c-.46,0-.9.08-1.34.14-3-7.75-2.24-14.64-1-21.54a31.51,31.51,0,0,1,3.66-.4,44,44,0,0,1,11.27.84ZM68.4,39c1.69,5.84,4.22,12.18,9.82,17.62a14.42,14.42,0,0,0-2.7,3.13C74.15,59.12,66,55.22,60.1,49a34.34,34.34,0,0,1,8.3-10Zm-8,41.84c6.52-1.67,9.94-2.8,15.15-6.15a10.8,10.8,0,0,0,2.11,2.16c-1.88,3.34-5.16,6-8.34,8.64l-2.53,2.14c-.62-.47-1.23-1-1.81-1.49a27.69,27.69,0,0,1-4.58-5.3ZM84.64,93.08a27.28,27.28,0,0,1-7-.51,43.93,43.93,0,0,0,4.89-13.41,11.37,11.37,0,0,0,2.55.23A35.44,35.44,0,0,1,86,93c-.44.06-.88.1-1.33.12Zm10.21-3.15A38.48,38.48,0,0,0,90,78a9.66,9.66,0,0,0,1.72-1.4,36.57,36.57,0,0,1,9,8.07c-.34.42-.68.85-1,1.26a22,22,0,0,1-4.85,4.05Zm6.51-6.16a37.14,37.14,0,0,0-9-8,9.13,9.13,0,0,0,1.16-1.89,37.65,37.65,0,0,1,10.92,3.25,21.53,21.53,0,0,1-3.12,6.63Zm17.92-11.39-4.13.6a49.1,49.1,0,0,1-9.42.89,20.74,20.74,0,0,0,.23-2.5c0-.41,0-.83,0-1.24s-.07-.71-.11-1.06c1.07-.34,16.28-5,26.16-5.48a42.28,42.28,0,0,1,1.08,7.24l-13.78,1.55"></path></g></g></svg> 