<svg id="Groupe_1207" data-name="Groupe 1207" xmlns="http://www.w3.org/2000/svg" width="572.752" height="142.046" viewBox="0 0 572.752 142.046">
  <path id="Tracé_1210" data-name="Tracé 1210" d="M77.659,37.68,64.253,39.711a27.737,27.737,0,0,0,1.9-5.687c1.76-9.75-4.333-14.489-17.874-14.489-10.833,0-16.791,3.385-18.01,10.02C29.317,34.566,34.6,38.9,46.108,42.42c21.937,7.041,31.686,17.2,29.384,30.6-1.354,7.854-5.823,14.218-13.135,19.093C55.045,96.855,45.837,99.292,35,99.292q-35.952,0-31.686-23.968.406-2.031,1.219-4.875l13.947-2.573a44.731,44.731,0,0,0-3.25,9.208c-1.76,10.291,4.2,15.572,17.874,15.572,10.968,0,17.2-3.792,18.551-11.239.948-5.552-4.739-10.427-17.2-14.624C16.453,60.835,8.735,51.221,11.037,37.951,12.391,30.5,16.589,24.41,23.765,19.806S39.744,12.9,50.035,12.9q31.889,0,27.624,24.78" transform="translate(1.015 4.568)" fill="#934d98"/>
  <path id="Tracé_1211" data-name="Tracé 1211" d="M115.99,13.9,101.23,97.448H73.2L87.824,13.9Z" transform="translate(25.921 4.922)" fill="#934d98"/>
  <path id="Tracé_1212" data-name="Tracé 1212" d="M117.1,97.448,131.86,13.9h40.217q42.858,0,35.342,41.842-7.312,41.639-51.727,41.707H117.1Zm29.249-6.906h7.312c6.771,0,11.916-2.573,15.437-7.583s6.364-14.083,8.666-27.353c2.3-13.135,2.573-22.207.948-27.218-1.76-5.01-5.958-7.583-12.729-7.583h-7.312Z" transform="translate(41.466 4.922)" fill="#934d98"/>
  <path id="Tracé_1213" data-name="Tracé 1213" d="M259.212,13.9,271.4,97.448H243.1L240.525,79.3H211.412l-9.343,18.145H191.1L234.431,13.9h24.78ZM215.745,70.908h23.832L234.7,33.941Z" transform="translate(67.67 4.922)" fill="#934d98"/>
  <path id="Tracé_1214" data-name="Tracé 1214" d="M371.579,13.9,356.954,97.448H329.737l10.291-58.091L310.915,97.448H295.207L286,40.305,275.843,97.448H266.5L281.124,13.9H309.7l7.718,50.508L342.872,13.9Z" transform="translate(94.37 4.922)" fill="#934d98"/>
  <path id="Tracé_1215" data-name="Tracé 1215" d="M410.227,12.9c28.165,0,39.811,14.354,34.665,43.2q-7.515,43.264-50.644,43.2-43.061,0-35.342-44.144c5.01-28.3,22.207-42.248,51.321-42.248m-1.9,6.635c-5.281,0-9.343,2.573-12.052,7.583s-5.416,14.624-7.854,28.978c-2.573,14.218-3.25,23.968-2.3,28.978s4.062,7.583,9.479,7.583,9.343-2.573,12.052-7.583,5.416-14.624,7.854-28.978c2.573-14.218,3.25-23.832,2.3-28.978-1.083-5.146-4.2-7.583-9.479-7.583" transform="translate(126.676 4.568)" fill="#934d98"/>
  <rect id="Rectangle_2058" data-name="Rectangle 2058" width="568.048" height="7.718" fill="#934d98"/>
  <rect id="Rectangle_2059" data-name="Rectangle 2059" width="469.334" height="30.738" transform="translate(98.714 111.308)" fill="#934d98"/>
  <path id="Tracé_1216" data-name="Tracé 1216" d="M121.1,96.425a8.892,8.892,0,0,1,.542-3.385,6.99,6.99,0,0,1,1.625-2.573,7.684,7.684,0,0,1,2.437-1.625,9.225,9.225,0,0,1,6.229,0,7.684,7.684,0,0,1,2.437,1.625A8.329,8.329,0,0,1,136,93.039a10.85,10.85,0,0,1,0,6.771,6.99,6.99,0,0,1-1.625,2.573,7.528,7.528,0,0,1-8.666,1.76,6.268,6.268,0,0,1-2.437-1.76,8.328,8.328,0,0,1-1.625-2.573,8.892,8.892,0,0,1-.542-3.385m2.708,0a6.325,6.325,0,0,0,.406,2.3,5.313,5.313,0,0,0,1.083,1.9,3.7,3.7,0,0,0,1.625,1.219,4.522,4.522,0,0,0,2.031.406,5.433,5.433,0,0,0,2.031-.406,4.67,4.67,0,0,0,1.625-1.219,6.682,6.682,0,0,0,1.083-6.5,8.272,8.272,0,0,0-.948-1.9,3.7,3.7,0,0,0-1.625-1.219,5.281,5.281,0,0,0-4.062,0,4.233,4.233,0,0,0-1.49,1.219,4.182,4.182,0,0,0-.948,1.9,3.217,3.217,0,0,0-.812,2.3" transform="translate(42.882 31.268)" fill="#fff"/>
  <path id="Tracé_1217" data-name="Tracé 1217" d="M145.845,98.52a7.884,7.884,0,0,1-.406,2.573,5.3,5.3,0,0,1-3.114,3.114,6.725,6.725,0,0,1-4.6,0,5.3,5.3,0,0,1-3.114-3.114,7.884,7.884,0,0,1-.406-2.573V88.5h2.573v9.885a4.606,4.606,0,0,0,.135,1.354,4.811,4.811,0,0,0,.542,1.219,1.82,1.82,0,0,0,.948.812,2.678,2.678,0,0,0,1.49.271,4.868,4.868,0,0,0,1.49-.271,2.936,2.936,0,0,0,.948-.812,4.809,4.809,0,0,0,.542-1.219A4.606,4.606,0,0,0,143,98.385V88.5h2.573V98.52Z" transform="translate(47.521 31.339)" fill="#fff"/>
  <path id="Tracé_1218" data-name="Tracé 1218" d="M148.369,90.937H143.9V88.5h11.375v2.437h-4.333v13.406h-2.573Z" transform="translate(50.956 31.339)" fill="#fff"/>
  <rect id="Rectangle_2060" data-name="Rectangle 2060" width="2.573" height="15.843" transform="translate(207.991 119.839)" fill="#fff"/>
  <path id="Tracé_1219" data-name="Tracé 1219" d="M157.8,88.5h2.573v13.27h6.093v2.573H157.8Z" transform="translate(55.878 31.339)" fill="#fff"/>
  <path id="Tracé_1220" data-name="Tracé 1220" d="M173.025,91.956a3.65,3.65,0,0,0-1.083-.948,3.087,3.087,0,0,0-1.49-.406,2.644,2.644,0,0,0-.948.135l-.812.406a1.352,1.352,0,0,0-.542.677,1.794,1.794,0,0,0,0,1.9,2.377,2.377,0,0,0,.542.677l.812.406a9.332,9.332,0,0,0,1.083.406c.406.135.948.406,1.49.542a11.908,11.908,0,0,1,1.354.812,5.3,5.3,0,0,1,1.083,1.354,4.325,4.325,0,0,1,.406,1.9,5.156,5.156,0,0,1-.406,2.167,4.869,4.869,0,0,1-1.083,1.625,10.1,10.1,0,0,1-1.625.948,5.263,5.263,0,0,1-2.031.271,6.063,6.063,0,0,1-2.708-.542,5.386,5.386,0,0,1-2.167-1.625l1.9-1.9a3.841,3.841,0,0,0,1.354,1.219,4.17,4.17,0,0,0,1.76.406,2.644,2.644,0,0,0,.948-.135l.812-.406a1.352,1.352,0,0,0,.542-.677,2.3,2.3,0,0,0,0-2.167,1.632,1.632,0,0,0-.677-.677,8.04,8.04,0,0,0-1.083-.542l-1.219-.406a9.337,9.337,0,0,1-1.354-.542l-1.219-.812a3.2,3.2,0,0,1-.812-1.219,4.016,4.016,0,0,1-.271-1.9,4.522,4.522,0,0,1,.406-2.031,4.233,4.233,0,0,1,1.219-1.49,4.576,4.576,0,0,1,1.625-.812,9.144,9.144,0,0,1,1.9-.271,6.133,6.133,0,0,1,2.167.406,4.59,4.59,0,0,1,1.9,1.219Z" transform="translate(58.392 31.268)" fill="#fff"/>
  <path id="Tracé_1221" data-name="Tracé 1221" d="M191.7,100.658l3.385,3.792h-3.25l-1.625-1.76a6.077,6.077,0,0,1-1.76,1.49,4.842,4.842,0,0,1-2.573.542,9.144,9.144,0,0,1-1.9-.271,5.255,5.255,0,0,1-1.49-.812,4.244,4.244,0,0,1-1.083-1.49,4.522,4.522,0,0,1-.406-2.031,6.8,6.8,0,0,1,.271-1.625,3.55,3.55,0,0,1,.677-1.219,6.255,6.255,0,0,1,.948-.948,5.489,5.489,0,0,1,1.219-.677,5.666,5.666,0,0,1-1.083-1.625,4.325,4.325,0,0,1-.406-1.9,3.748,3.748,0,0,1,.406-1.76,2.949,2.949,0,0,1,.948-1.219,4.236,4.236,0,0,1,1.354-.677,4.232,4.232,0,0,1,2.979,0,2.618,2.618,0,0,1,1.219.677,2.949,2.949,0,0,1,.948,1.219,3.435,3.435,0,0,1,.271,1.625,4.007,4.007,0,0,1-.271,1.354,5.489,5.489,0,0,1-.677,1.219,3.164,3.164,0,0,1-.948.948,4.75,4.75,0,0,1-1.083.677l2.3,2.708,1.76-2.844h2.844Zm-6.093-3.25-.812.406a2.377,2.377,0,0,0-.677.542,4.508,4.508,0,0,0-.406.812,2.3,2.3,0,0,0-.135.948,3.187,3.187,0,0,0,.271,1.083,2.489,2.489,0,0,0,1.354,1.354,1.718,1.718,0,0,0,.812.135,2.73,2.73,0,0,0,1.49-.406,5.171,5.171,0,0,0,1.219-1.219Zm1.219-7.041a1.654,1.654,0,0,0-1.219.542,2.017,2.017,0,0,0-.542,1.219,5.96,5.96,0,0,0,.271,1.354,7.44,7.44,0,0,0,.948,1.219l.812-.406c.271-.135.406-.406.677-.542.135-.271.271-.406.406-.677a1.717,1.717,0,0,0,.135-.812,1.655,1.655,0,0,0-.406-1.219c-.135-.542-.542-.677-1.083-.677" transform="translate(64.093 31.232)" fill="#fff"/>
  <path id="Tracé_1222" data-name="Tracé 1222" d="M207.725,91.956a3.65,3.65,0,0,0-1.083-.948,3.087,3.087,0,0,0-1.49-.406,2.644,2.644,0,0,0-.948.135l-.812.406a1.352,1.352,0,0,0-.542.677,1.794,1.794,0,0,0,0,1.9,2.377,2.377,0,0,0,.542.677l.812.406a9.331,9.331,0,0,0,1.083.406c.406.135.948.406,1.49.542a11.911,11.911,0,0,1,1.354.812,5.3,5.3,0,0,1,1.083,1.354,4.325,4.325,0,0,1,.406,1.9,5.156,5.156,0,0,1-.406,2.167,4.869,4.869,0,0,1-1.083,1.625,10.1,10.1,0,0,1-1.625.948,5.263,5.263,0,0,1-2.031.271,6.062,6.062,0,0,1-2.708-.542,5.386,5.386,0,0,1-2.167-1.625l1.9-1.9a3.841,3.841,0,0,0,1.354,1.219,4.17,4.17,0,0,0,1.76.406,2.644,2.644,0,0,0,.948-.135l.813-.406a1.352,1.352,0,0,0,.542-.677,2.3,2.3,0,0,0,0-2.167,1.632,1.632,0,0,0-.677-.677,8.041,8.041,0,0,0-1.083-.542l-1.219-.406a9.335,9.335,0,0,1-1.354-.542l-1.219-.812a3.2,3.2,0,0,1-.812-1.219,4.016,4.016,0,0,1-.271-1.9,4.522,4.522,0,0,1,.406-2.031,4.233,4.233,0,0,1,1.219-1.49,4.576,4.576,0,0,1,1.625-.812,9.144,9.144,0,0,1,1.9-.271,6.133,6.133,0,0,1,2.167.406,4.59,4.59,0,0,1,1.9,1.219Z" transform="translate(70.68 31.268)" fill="#fff"/>
  <path id="Tracé_1223" data-name="Tracé 1223" d="M208.8,88.5h9.479v2.437h-6.906V95h6.635v2.3h-6.635v4.469h7.312v2.573H208.8Z" transform="translate(73.938 31.339)" fill="#fff"/>
  <path id="Tracé_1224" data-name="Tracé 1224" d="M217.935,88.5h5.01a10.453,10.453,0,0,1,2.031.271,4.2,4.2,0,0,1,1.76.812,3.841,3.841,0,0,1,1.219,1.354,5.156,5.156,0,0,1,.406,2.167,4.25,4.25,0,0,1-.948,2.844,4.424,4.424,0,0,1-2.437,1.49l3.792,7.041h-3.114l-3.385-6.771h-1.9v6.771H217.8V88.5Zm4.739,6.771a2.982,2.982,0,0,0,1.083-.135,1.957,1.957,0,0,0,.948-.271,1.632,1.632,0,0,0,.677-.677,2.7,2.7,0,0,0,.271-1.219,2.551,2.551,0,0,0-.271-1.083,1.632,1.632,0,0,0-.677-.677,1.957,1.957,0,0,0-.948-.271c-.406,0-.677-.135-.948-.135h-2.3v4.469h2.167Z" transform="translate(77.125 31.339)" fill="#fff"/>
  <path id="Tracé_1225" data-name="Tracé 1225" d="M225.9,88.5h2.844l3.927,12.187h.135L236.733,88.5h2.844l-5.823,15.843h-2.167Z" transform="translate(79.993 31.339)" fill="#fff"/>
  <rect id="Rectangle_2061" data-name="Rectangle 2061" width="2.573" height="15.843" transform="translate(320.923 119.839)" fill="#fff"/>
  <path id="Tracé_1226" data-name="Tracé 1226" d="M251.839,92.362a3.31,3.31,0,0,0-1.49-1.219,4.675,4.675,0,0,0-1.76-.406,5.433,5.433,0,0,0-2.031.406,4.67,4.67,0,0,0-1.625,1.219,6.682,6.682,0,0,0-1.083,6.5,8.272,8.272,0,0,0,.948,1.9,4.233,4.233,0,0,0,1.49,1.219,4.522,4.522,0,0,0,2.031.406,3.263,3.263,0,0,0,2.031-.542,4.685,4.685,0,0,0,1.49-1.354l2.031,1.625a6.583,6.583,0,0,1-2.3,2.031,6.376,6.376,0,0,1-3.25.677,8.032,8.032,0,0,1-3.114-.677,6.267,6.267,0,0,1-2.437-1.76,8.328,8.328,0,0,1-1.625-2.573,9.35,9.35,0,0,1-.542-3.385,8.892,8.892,0,0,1,.542-3.385,6.99,6.99,0,0,1,1.625-2.573,7.684,7.684,0,0,1,2.437-1.625,7.945,7.945,0,0,1,3.114-.542,6.073,6.073,0,0,1,1.49.135c.542.135.948.271,1.49.406a3.608,3.608,0,0,1,1.354.812,4.121,4.121,0,0,1,1.083,1.083Z" transform="translate(85.198 31.268)" fill="#fff"/>
  <path id="Tracé_1227" data-name="Tracé 1227" d="M251.7,88.5h9.479v2.437h-7.041V95h6.635v2.3h-6.635v4.469h7.448v2.573H251.7Z" transform="translate(89.129 31.339)" fill="#fff"/>
  <path id="Tracé_1228" data-name="Tracé 1228" d="M268.325,91.956a3.651,3.651,0,0,0-1.083-.948,3.087,3.087,0,0,0-1.49-.406,2.644,2.644,0,0,0-.948.135l-.812.406a1.352,1.352,0,0,0-.542.677,1.957,1.957,0,0,0-.271.948,1.143,1.143,0,0,0,.271.948,2.378,2.378,0,0,0,.542.677l.812.406a9.335,9.335,0,0,0,1.083.406c.406.135.948.406,1.49.542a11.905,11.905,0,0,1,1.354.812,5.3,5.3,0,0,1,1.083,1.354,4.325,4.325,0,0,1,.406,1.9,5.156,5.156,0,0,1-.406,2.167,4.87,4.87,0,0,1-1.083,1.625,10.1,10.1,0,0,1-1.625.948,5.263,5.263,0,0,1-2.031.271,6.062,6.062,0,0,1-2.708-.542,5.386,5.386,0,0,1-2.167-1.625l1.76-1.9a3.841,3.841,0,0,0,1.354,1.219,4.17,4.17,0,0,0,1.76.406,2.644,2.644,0,0,0,.948-.135l.813-.406c.271-.135.406-.406.677-.677a2.3,2.3,0,0,0,0-2.167,1.632,1.632,0,0,0-.677-.677,8.042,8.042,0,0,0-1.083-.542l-1.219-.406a9.337,9.337,0,0,1-1.354-.542l-1.219-.812a3.2,3.2,0,0,1-.812-1.219,4.015,4.015,0,0,1-.271-1.9,4.522,4.522,0,0,1,.406-2.031,4.232,4.232,0,0,1,1.219-1.49,4.576,4.576,0,0,1,1.625-.812,9.144,9.144,0,0,1,1.9-.271,6.133,6.133,0,0,1,2.167.406,4.591,4.591,0,0,1,1.9,1.219Z" transform="translate(92.139 31.268)" fill="#fff"/>
  <path id="Tracé_1229" data-name="Tracé 1229" d="M279.833,90.937H275.5V88.5h11.375v2.437h-4.469v13.406h-2.573Z" transform="translate(97.557 31.339)" fill="#fff"/>
  <path id="Tracé_1230" data-name="Tracé 1230" d="M285.1,88.5h9.479v2.437h-6.906V95h6.635v2.3h-6.635v4.469h7.312v2.573H285.1Z" transform="translate(100.956 31.339)" fill="#fff"/>
  <path id="Tracé_1231" data-name="Tracé 1231" d="M304.839,92.362a3.31,3.31,0,0,0-1.49-1.219,4.675,4.675,0,0,0-1.76-.406,5.433,5.433,0,0,0-2.031.406,4.671,4.671,0,0,0-1.625,1.219,6.682,6.682,0,0,0-1.083,6.5,8.273,8.273,0,0,0,.948,1.9,4.233,4.233,0,0,0,1.49,1.219,4.522,4.522,0,0,0,2.031.406,3.263,3.263,0,0,0,2.031-.542,4.685,4.685,0,0,0,1.49-1.354l2.031,1.625a6.583,6.583,0,0,1-2.3,2.031,6.376,6.376,0,0,1-3.25.677,8.032,8.032,0,0,1-3.114-.677,6.267,6.267,0,0,1-2.437-1.76,8.329,8.329,0,0,1-1.625-2.573,9.35,9.35,0,0,1-.542-3.385,8.892,8.892,0,0,1,.542-3.385,6.989,6.989,0,0,1,1.625-2.573,7.684,7.684,0,0,1,2.437-1.625,7.944,7.944,0,0,1,3.114-.542,6.073,6.073,0,0,1,1.49.135c.542.135.948.271,1.49.406a3.608,3.608,0,0,1,1.354.812,4.121,4.121,0,0,1,1.083,1.083Z" transform="translate(103.966 31.268)" fill="#fff"/>
  <path id="Tracé_1232" data-name="Tracé 1232" d="M304.7,88.5h2.573v6.364h6.635V88.5h2.573v15.843h-2.573V97.3h-6.635v7.041H304.7Z" transform="translate(107.897 31.339)" fill="#fff"/>
  <path id="Tracé_1233" data-name="Tracé 1233" d="M315.8,88.5h3.385l6.635,11.916h0V88.5h2.573v15.843h-3.25l-6.771-12.187h0v12.187H315.8Z" transform="translate(111.827 31.339)" fill="#fff"/>
  <rect id="Rectangle_2062" data-name="Rectangle 2062" width="2.573" height="15.843" transform="translate(443.47 119.839)" fill="#fff"/>
  <path id="Tracé_1234" data-name="Tracé 1234" d="M347.349,104.414h-8.666a7.945,7.945,0,0,1-3.114-.542,7.684,7.684,0,0,1-2.437-1.625,5.4,5.4,0,0,1-1.49-2.573,8.892,8.892,0,0,1-.542-3.385,8.194,8.194,0,0,1,.542-3.25,8.328,8.328,0,0,1,1.625-2.573,7.684,7.684,0,0,1,2.437-1.625,7.526,7.526,0,0,1,3.114-.542,6.888,6.888,0,0,1,2.979.542,7.684,7.684,0,0,1,2.437,1.625,8.329,8.329,0,0,1,1.625,2.573,8.194,8.194,0,0,1,.542,3.25,10.453,10.453,0,0,1-.271,2.031c-.135.542-.406,1.083-.542,1.625a2.754,2.754,0,0,1-.812,1.219,6.254,6.254,0,0,1-.948.948h3.521Zm-8.531-13.676a4.325,4.325,0,0,0-1.9.406,4.233,4.233,0,0,0-1.49,1.219,7.678,7.678,0,0,0-1.083,1.76,6.726,6.726,0,0,0,0,4.6,7.3,7.3,0,0,0,.948,1.76,3.84,3.84,0,0,0,1.49,1.083,4.522,4.522,0,0,0,2.031.406,4.325,4.325,0,0,0,1.9-.406,6.013,6.013,0,0,0,1.49-1.083,7.678,7.678,0,0,0,1.083-1.76,6.325,6.325,0,0,0,.406-2.3,6.879,6.879,0,0,0-.406-2.3,7.3,7.3,0,0,0-.948-1.76,6.514,6.514,0,0,0-1.49-1.219,5.433,5.433,0,0,0-2.031-.406" transform="translate(117.245 31.268)" fill="#fff"/>
  <path id="Tracé_1235" data-name="Tracé 1235" d="M355.945,98.52a7.885,7.885,0,0,1-.406,2.573,5.3,5.3,0,0,1-3.114,3.114,6.725,6.725,0,0,1-4.6,0,5.3,5.3,0,0,1-3.114-3.114,7.883,7.883,0,0,1-.406-2.573V88.5h2.573v9.885a4.606,4.606,0,0,0,.135,1.354,4.811,4.811,0,0,0,.542,1.219,1.82,1.82,0,0,0,.948.812,2.678,2.678,0,0,0,1.49.271,4.868,4.868,0,0,0,1.49-.271,5.891,5.891,0,0,0,.948-.812,4.81,4.81,0,0,0,.542-1.219,4.607,4.607,0,0,0,.135-1.354V88.5h2.573V98.52Z" transform="translate(121.919 31.339)" fill="#fff"/>
  <path id="Tracé_1236" data-name="Tracé 1236" d="M355.2,88.5h9.479v2.437h-6.906V95h6.635v2.3h-6.635v4.469h7.312v2.573H355.2Z" transform="translate(125.779 31.339)" fill="#fff"/>
  <path id="Tracé_1237" data-name="Tracé 1237" d="M371.925,91.956a3.651,3.651,0,0,0-1.083-.948,3.087,3.087,0,0,0-1.49-.406,2.644,2.644,0,0,0-.948.135l-.812.406a1.352,1.352,0,0,0-.542.677,1.957,1.957,0,0,0-.271.948,1.142,1.142,0,0,0,.271.948,2.378,2.378,0,0,0,.542.677l.812.406a9.333,9.333,0,0,0,1.083.406c.406.135.948.406,1.49.542a11.907,11.907,0,0,1,1.354.812,5.3,5.3,0,0,1,1.083,1.354,4.325,4.325,0,0,1,.406,1.9,5.157,5.157,0,0,1-.406,2.167,4.87,4.87,0,0,1-1.083,1.625,10.1,10.1,0,0,1-1.625.948,5.263,5.263,0,0,1-2.031.271,6.062,6.062,0,0,1-2.708-.542,5.386,5.386,0,0,1-2.167-1.625l1.76-1.9a3.841,3.841,0,0,0,1.354,1.219,4.17,4.17,0,0,0,1.76.406,2.644,2.644,0,0,0,.948-.135l.812-.406c.271-.135.406-.406.677-.677a2.3,2.3,0,0,0,0-2.167,1.632,1.632,0,0,0-.677-.677,8.042,8.042,0,0,0-1.083-.542l-1.219-.406a9.338,9.338,0,0,1-1.354-.542l-1.219-.812a3.2,3.2,0,0,1-.812-1.219,4.015,4.015,0,0,1-.271-1.9,4.522,4.522,0,0,1,.406-2.031,4.233,4.233,0,0,1,1.219-1.49,4.576,4.576,0,0,1,1.625-.812,9.144,9.144,0,0,1,1.9-.271,6.133,6.133,0,0,1,2.167.406,4.59,4.59,0,0,1,1.9,1.219Z" transform="translate(128.824 31.268)" fill="#fff"/>
  <rect id="Rectangle_2063" data-name="Rectangle 2063" width="72.986" height="8.125" transform="translate(0.406 111.308)" fill="#b1a395"/>
  <rect id="Rectangle_2064" data-name="Rectangle 2064" width="72.986" height="8.125" transform="translate(0.406 119.026)" fill="#5d2c4e"/>
  <rect id="Rectangle_2065" data-name="Rectangle 2065" width="72.986" height="8.125" transform="translate(0.406 126.609)" fill="#63a2bc"/>
  <rect id="Rectangle_2066" data-name="Rectangle 2066" width="72.986" height="7.718" transform="translate(0.406 134.327)" fill="#a09f00"/>
</svg>
