<?xml version="1.0" encoding="utf-8"?>
<!-- Generator: Adobe Illustrator 25.4.1, SVG Export Plug-In . SVG Version: 6.00 Build 0)  -->
<svg version="1.1" xmlns="http://www.w3.org/2000/svg" xmlns:xlink="http://www.w3.org/1999/xlink" x="0px" y="0px"
	 viewBox="0 0 144.57 56.69" style="enable-background:new 0 0 144.57 56.69;" xml:space="preserve">
<style type="text/css">
	.st0{fill:#E4032C;}
	.st1{fill:#EA0029;}
</style>
<g id="M_100__-__J_81">
	<g>
		<g>
			<g>
				<path class="st0" d="M138.36,5.47c0,1.37-1.07,2.44-2.47,2.44c-1.38,0-2.48-1.07-2.48-2.44c0-1.34,1.1-2.41,2.48-2.41
					C137.29,3.06,138.36,4.13,138.36,5.47z M134.02,5.47c0,1.07,0.79,1.92,1.88,1.92c1.06,0,1.83-0.86,1.83-1.91
					c0-1.07-0.78-1.94-1.85-1.94C134.81,3.54,134.02,4.41,134.02,5.47z M135.51,6.74h-0.56V4.32c0.22-0.05,0.53-0.08,0.93-0.08
					c0.46,0,0.66,0.08,0.83,0.18c0.13,0.1,0.24,0.29,0.24,0.53c0,0.26-0.21,0.47-0.5,0.55v0.03c0.24,0.1,0.37,0.26,0.44,0.59
					c0.07,0.37,0.12,0.51,0.18,0.61h-0.6c-0.07-0.09-0.12-0.31-0.2-0.59c-0.04-0.27-0.18-0.39-0.49-0.39h-0.27V6.74z M135.52,5.36
					h0.27c0.31,0,0.56-0.1,0.56-0.35c0-0.22-0.17-0.36-0.52-0.36c-0.15,0-0.25,0.02-0.31,0.03V5.36z"/>
			</g>
			<path class="st0" d="M2.96,3.05h30.29v7.45H22.83v24.69h-9.46V10.5H2.96V3.05z"/>
			<path class="st0" d="M65.15,3.05h9.46v24.66h12.33l3.71,7.47H65.15V3.05z"/>
			<g>
				<path class="st0" d="M91.78,3.05h9.46v32.13h-9.46V3.05z"/>
			</g>
			<g>
				<path class="st0" d="M115.93,47.7h2.54c1.65,0,1.96,1.06,1.96,1.78c0,0.71-0.31,1.78-1.96,1.77h-1.53v2.21h-1.01V47.7z
					 M116.93,50.43h1.48c0.45,0,1.01-0.23,1.01-0.95c0-0.76-0.46-0.95-0.99-0.95h-1.49V50.43z"/>
				<path class="st0" d="M121.35,47.7h1.01v4.89h2.93v0.87h-3.94V47.7z"/>
				<path class="st0" d="M127.84,47.7h1.07l2.22,5.76h-1.08l-0.54-1.53h-2.3l-0.54,1.53h-1.04L127.84,47.7z M127.49,51.17h1.76
					l-0.86-2.48h-0.01h-0.02L127.49,51.17z"/>
				<path class="st0" d="M132.75,51.54c0,0.89,0.65,1.23,1.46,1.23c0.89,0,1.22-0.44,1.22-0.87c0-0.44-0.24-0.62-0.48-0.71
					c-0.4-0.15-0.93-0.26-1.72-0.48c-0.98-0.27-1.28-0.86-1.28-1.46c0-1.15,1.06-1.7,2.11-1.7c1.2,0,2.21,0.64,2.21,1.84h-1.01
					c-0.05-0.74-0.55-1.02-1.24-1.02c-0.47,0-1.06,0.17-1.06,0.75c0,0.4,0.28,0.63,0.69,0.74c0.09,0.02,1.36,0.35,1.66,0.44
					c0.76,0.23,1.12,0.87,1.12,1.47c0,1.29-1.14,1.81-2.29,1.81c-1.31,0-2.38-0.63-2.4-2.06H132.75z"/>
				<path class="st0" d="M136.81,47.7h4.66v0.87h-1.83v4.89h-1.01v-4.89h-1.82V47.7z"/>
			</g>
			<path class="st0" d="M131.18,33.33l8.61-1.37l-12.59-28.9h-10.45L102.8,35.19h9.57l2.07-5.18h15.35L131.18,33.33z M117.11,23.34
				l4.84-12.1l5.12,12.1H117.11z"/>
		</g>
		<g>
			<polygon points="39.15,3.05 49.61,3.05 63.6,35.19 43.46,35.19 40.24,27.69 51.33,27.69 44.36,11.24 34.78,35.19 25.21,35.19
				"/>
			<path d="M142.86,39.05c-6.28,1.11-45.92,7.86-78.07,7.86c-35.02,0-54.76-4.03-54.76-4.03l-3.91,9.06c0,0,23.68,3.48,65.14,0.42
				c36.08-2.66,65.8-10.49,72.08-12.23L142.86,39.05z"/>
		</g>
	</g>
</g>
</svg>
