<svg id="Ebene_1" data-name="Ebene 1" xmlns="http://www.w3.org/2000/svg" viewBox="0 0 1189.08 604.09"><defs><style>.cls-1{fill:#fff;}.cls-2{fill:#b30000;}.cls-3{fill-rule:evenodd;}</style></defs><title>logo-wienerberger-cbme</title><rect class="cls-1" width="1189.08" height="604.48"/><polygon class="cls-2" points="608.7 242.69 635.54 215.76 635.54 283.63 608.7 310.56 608.7 242.69 608.7 242.69"/><polygon class="cls-2" points="497.39 269.17 524.23 242.24 524.23 283.61 497.39 310.54 497.39 269.17 497.39 269.17"/><polygon class="cls-2" points="530.09 227.99 563.58 194.79 563.58 277.35 530.09 310.55 530.09 227.99 530.09 227.99"/><polygon class="cls-2" points="569.36 188.76 602.85 155.28 602.85 277.07 569.36 310.55 569.36 188.76 569.36 188.76"/><polygon points="264.5 329.4 237.12 329.4 225.06 382.54 224.78 382.54 212.72 329.4 189.81 329.4 177.47 382.54 177.2 382.54 165.41 329.4 138.16 329.4 162.42 426.19 189.53 426.19 201.06 375.36 201.33 375.36 213.13 426.19 239.42 426.19 264.5 329.4 264.5 329.4"/><path class="cls-3" d="M267.22,426.19h26.84V355.83H267.22v70.36Zm26.84-96.79H267.22v18.84h26.84V329.4Z"/><path class="cls-3" d="M327.14,383.08c1.22-7.59,5.83-11.79,13.83-11.79a11.54,11.54,0,0,1,11.79,11.79Zm51.38,14c0-27.39-12.06-43-40-43-22.24,0-37.15,16.68-37.15,37.14,0,23.46,16.95,36.74,39.45,36.74,16,0,30.78-7.05,36.2-22.23H352c-2.17,3.39-6.92,5-11.25,5-8.41,0-13-5.69-13.7-13.69Z"/><path d="M386.25,426.19H413.1V389.05c0-11.25,6.1-13.56,10.7-13.56,7.87,0,8.82,5.69,8.82,13.83v36.87h26.84V377.93c0-16.13-11.52-23.86-24.13-23.86-10.71,0-17.9,3.66-22.91,10.71h-.27v-8.95h-25.9v70.36Z"/><path class="cls-3" d="M492.08,383.08c1.22-7.59,5.83-11.79,13.83-11.79a11.54,11.54,0,0,1,11.79,11.79Zm51.38,14c0-27.39-12.07-43-40-43-22.23,0-37.14,16.68-37.14,37.14,0,23.46,16.95,36.74,39.45,36.74,16,0,30.77-7.05,36.2-22.23H516.89c-2.17,3.39-6.92,5-11.26,5-8.4,0-13-5.69-13.69-13.69Z"/><path d="M550.06,426.19H576.9V398.4c0-15,5.7-21.28,16.27-21.28,5.43,0,6.37.54,9.09,1.35V354.75a19.17,19.17,0,0,0-6.38-.68c-9.76,0-15.45,4.61-19.79,13h-.27V355.83H550.06v70.36Z"/><path class="cls-3" d="M658.18,390.94c0,8.41-2.17,17.5-11.8,17.5s-11.79-9.09-11.79-17.5c0-8.26,2.17-17.35,11.79-17.35s11.8,9.09,11.8,17.35ZM608.7,426.19h25.89v-7.72h.27c3.39,4.47,7.46,9.48,20.61,9.48C675.4,428,685,408.3,685,390.67c0-16.54-6.37-36.6-30-36.6-8,0-15.18,3.53-19.25,9.49h-.27V329.4H608.7v96.79Z"/><path class="cls-3" d="M716,383.08c1.22-7.59,5.83-11.79,13.83-11.79a11.54,11.54,0,0,1,11.79,11.79Zm51.38,14c0-27.39-12.07-43-40-43-22.23,0-37.15,16.68-37.15,37.14,0,23.46,16.95,36.74,39.45,36.74,16,0,30.78-7.05,36.2-22.23H740.8c-2.17,3.39-6.92,5-11.26,5-8.4,0-13-5.69-13.69-13.69Z"/><path d="M774.26,426.19H801.1V398.4c0-15,5.69-21.28,16.26-21.28,5.43,0,6.37.54,9.09,1.35V354.75a19.17,19.17,0,0,0-6.38-.68c-9.75,0-15.45,4.61-19.78,13H800V355.83H774.26v70.36Z"/><path class="cls-3" d="M857.15,387.55c0-7.45,3.8-14,11.4-14,7.86,0,11.66,6.1,11.66,13.83s-1.09,16.27-11,16.27c-9.63,0-12.08-8.14-12.08-16.14Zm49.22-31.72H879.53v8.55h-.28c-3.11-7.19-10.57-10.31-18.43-10.31-20.06,0-30.51,15.32-30.51,33.62,0,18.84,9.36,33.21,30.1,33.21a22.14,22.14,0,0,0,18.84-9.75h.28v6.5c0,5.83-1.9,16.14-10.58,16.14-5.42,0-8.54-2.31-9.35-7.6H833c2.44,19,20.06,23.46,36.74,23.46,32.94,0,36.6-19.66,36.6-33.62v-60.2Z"/><path class="cls-3" d="M939,383.08c1.22-7.59,5.83-11.79,13.82-11.79a11.55,11.55,0,0,1,11.8,11.79Zm51.38,14c0-27.39-12.07-43-40-43-22.24,0-37.15,16.68-37.15,37.14,0,23.46,16.94,36.74,39.45,36.74,16,0,30.78-7.05,36.2-22.23H963.82c-2.17,3.39-6.92,5-11.25,5-8.41,0-13-5.69-13.69-13.69Z"/><path d="M997.12,426.19H1024V398.4c0-15,5.69-21.28,16.27-21.28,5.41,0,6.37.54,9.08,1.35V354.75a19.17,19.17,0,0,0-6.37-.68c-9.76,0-15.46,4.61-19.8,13h-.27V355.83H997.12v70.36Z"/></svg>